<svg width="16" height="16" viewBox="0 0 16 16" fill="none" xmlns="http://www.w3.org/2000/svg">
<path d="M12.5 15C13.4283 15 14.3185 14.6313 14.9749 13.9749C15.6313 13.3185 16 12.4283 16 11.5C16 10.5717 15.6313 9.6815 14.9749 9.0251C14.3185 8.36875 13.4283 8 12.5 8C11.5717 8 10.6815 8.36875 10.0251 9.0251C9.36875 9.6815 9 10.5717 9 11.5C9 12.4283 9.36875 13.3185 10.0251 13.9749C10.6815 14.6313 11.5717 15 12.5 15ZM13 10V11H14C14.1326 11 14.2598 11.0527 14.3536 11.1464C14.4473 11.2402 14.5 11.3674 14.5 11.5C14.5 11.6326 14.4473 11.7598 14.3536 11.8536C14.2598 11.9473 14.1326 12 14 12H13V13C13 13.1326 12.9473 13.2598 12.8536 13.3536C12.7598 13.4473 12.6326 13.5 12.5 13.5C12.3674 13.5 12.2402 13.4473 12.1464 13.3536C12.0527 13.2598 12 13.1326 12 13V12H11C10.8674 12 10.7402 11.9473 10.6464 11.8536C10.5527 11.7598 10.5 11.6326 10.5 11.5C10.5 11.3674 10.5527 11.2402 10.6464 11.1464C10.7402 11.0527 10.8674 11 11 11H12V10C12 9.8674 12.0527 9.7402 12.1464 9.6464C12.2402 9.5527 12.3674 9.5 12.5 9.5C12.6326 9.5 12.7598 9.5527 12.8536 9.6464C12.9473 9.7402 13 9.8674 13 10ZM11 4C11 4.79565 10.6839 5.55871 10.1213 6.12132C9.55871 6.68393 8.79565 7 8 7C7.20435 7 6.44129 6.68393 5.87868 6.12132C5.31607 5.55871 5 4.79565 5 4C5 3.20435 5.31607 2.44129 5.87868 1.87868C6.44129 1.31607 7.20435 1 8 1C8.79565 1 9.55871 1.31607 10.1213 1.87868C10.6839 2.44129 11 3.20435 11 4Z" fill="#060606"/>
<path d="M2 13C2 14 3 14 3 14H8.256C8.08613 13.5182 7.99956 13.0109 8 12.5C7.99999 11.857 8.1378 11.2214 8.40414 10.6361C8.67047 10.0508 9.05916 9.5294 9.544 9.107C9.07733 9.037 8.56267 9.00133 8 9C3 9 2 12 2 13Z" fill="black"/>
</svg>
