<svg width="16" height="16" viewBox="0 0 16 16" fill="none" xmlns="http://www.w3.org/2000/svg">
<path fill-rule="evenodd" clip-rule="evenodd" d="M5.00001 11.5C5.00001 11.3674 5.05268 11.2402 5.14645 11.1465C5.24022 11.0527 5.3674 11 5.50001 11H14.5C14.6326 11 14.7598 11.0527 14.8536 11.1465C14.9473 11.2402 15 11.3674 15 11.5C15 11.6326 14.9473 11.7598 14.8536 11.8536C14.7598 11.9473 14.6326 12 14.5 12H5.50001C5.3674 12 5.24022 11.9473 5.14645 11.8536C5.05268 11.7598 5.00001 11.6326 5.00001 11.5ZM5.00001 7.50001C5.00001 7.3674 5.05268 7.24022 5.14645 7.14646C5.24022 7.05269 5.3674 7.00001 5.50001 7.00001H14.5C14.6326 7.00001 14.7598 7.05269 14.8536 7.14646C14.9473 7.24022 15 7.3674 15 7.50001C15 7.63262 14.9473 7.75979 14.8536 7.85356C14.7598 7.94733 14.6326 8.00001 14.5 8.00001H5.50001C5.3674 8.00001 5.24022 7.94733 5.14645 7.85356C5.05268 7.75979 5.00001 7.63262 5.00001 7.50001ZM5.00001 3.50001C5.00001 3.3674 5.05268 3.24022 5.14645 3.14646C5.24022 3.05269 5.3674 3.00001 5.50001 3.00001H14.5C14.6326 3.00001 14.7598 3.05269 14.8536 3.14646C14.9473 3.24022 15 3.3674 15 3.50001C15 3.63262 14.9473 3.75979 14.8536 3.85356C14.7598 3.94733 14.6326 4.00001 14.5 4.00001H5.50001C5.3674 4.00001 5.24022 3.94733 5.14645 3.85356C5.05268 3.75979 5.00001 3.63262 5.00001 3.50001ZM3.85401 2.14601C3.90057 2.19245 3.93751 2.24763 3.96272 2.30838C3.98793 2.36912 4.0009 2.43424 4.0009 2.50001C4.0009 2.56578 3.98793 2.6309 3.96272 2.69164C3.93751 2.75239 3.90057 2.80756 3.85401 2.85401L2.35401 4.35401C2.30756 4.40057 2.25238 4.43752 2.19164 4.46272C2.13089 4.48793 2.06577 4.5009 2.00001 4.5009C1.93424 4.5009 1.86912 4.48793 1.80837 4.46272C1.74763 4.43752 1.69245 4.40057 1.64601 4.35401L1.14601 3.85401C1.09952 3.80752 1.06264 3.75233 1.03748 3.69159C1.01232 3.63085 0.999374 3.56575 0.999374 3.50001C0.999374 3.43426 1.01232 3.36916 1.03748 3.30843C1.06264 3.24769 1.09952 3.1925 1.14601 3.14601C1.19249 3.09952 1.24768 3.06264 1.30842 3.03749C1.36916 3.01233 1.43426 2.99938 1.50001 2.99938C1.56575 2.99938 1.63085 3.01233 1.69159 3.03749C1.75233 3.06264 1.80752 3.09952 1.85401 3.14601L2.00001 3.29301L3.14601 2.14601C3.19245 2.09945 3.24763 2.0625 3.30837 2.0373C3.36912 2.01209 3.43424 1.99911 3.50001 1.99911C3.56577 1.99911 3.63089 2.01209 3.69164 2.0373C3.75238 2.0625 3.80756 2.09945 3.85401 2.14601ZM3.85401 6.14601C3.90057 6.19245 3.93751 6.24763 3.96272 6.30838C3.98793 6.36912 4.0009 6.43424 4.0009 6.50001C4.0009 6.56578 3.98793 6.6309 3.96272 6.69164C3.93751 6.75239 3.90057 6.80756 3.85401 6.85401L2.35401 8.35401C2.30756 8.40057 2.25238 8.43751 2.19164 8.46272C2.13089 8.48793 2.06577 8.5009 2.00001 8.5009C1.93424 8.5009 1.86912 8.48793 1.80837 8.46272C1.74763 8.43751 1.69245 8.40057 1.64601 8.35401L1.14601 7.85401C1.05212 7.76012 0.999374 7.63278 0.999374 7.50001C0.999374 7.36723 1.05212 7.2399 1.14601 7.14601C1.23989 7.05212 1.36723 6.99938 1.50001 6.99938C1.63278 6.99938 1.76012 7.05212 1.85401 7.14601L2.00001 7.29301L3.14601 6.14601C3.19245 6.09945 3.24763 6.0625 3.30837 6.0373C3.36912 6.01209 3.43424 5.99911 3.50001 5.99911C3.56577 5.99911 3.63089 6.01209 3.69164 6.0373C3.75238 6.0625 3.80756 6.09945 3.85401 6.14601ZM3.85401 10.146C3.90057 10.1925 3.93751 10.2476 3.96272 10.3084C3.98793 10.3691 4.0009 10.4342 4.0009 10.5C4.0009 10.5658 3.98793 10.6309 3.96272 10.6916C3.93751 10.7524 3.90057 10.8076 3.85401 10.854L2.35401 12.354C2.30756 12.4006 2.25238 12.4375 2.19164 12.4627C2.13089 12.4879 2.06577 12.5009 2.00001 12.5009C1.93424 12.5009 1.86912 12.4879 1.80837 12.4627C1.74763 12.4375 1.69245 12.4006 1.64601 12.354L1.14601 11.854C1.05212 11.7601 0.999374 11.6328 0.999374 11.5C0.999374 11.3672 1.05212 11.2399 1.14601 11.146C1.23989 11.0521 1.36723 10.9994 1.50001 10.9994C1.63278 10.9994 1.76012 11.0521 1.85401 11.146L2.00001 11.293L3.14601 10.146C3.19245 10.0994 3.24763 10.0625 3.30837 10.0373C3.36912 10.0121 3.43424 9.99911 3.50001 9.99911C3.56577 9.99911 3.63089 10.0121 3.69164 10.0373C3.75238 10.0625 3.80756 10.0994 3.85401 10.146Z" fill="black"/>
</svg>
