<svg width="16" height="14" viewBox="0 0 16 14" fill="none" xmlns="http://www.w3.org/2000/svg">
<path d="M8.70701 0.500001C8.51948 0.31253 8.26517 0.207214 8.00001 0.207214C7.73484 0.207214 7.48053 0.31253 7.29301 0.500001L0.646006 7.146C0.599518 7.19249 0.562642 7.24768 0.537483 7.30842C0.512324 7.36916 0.499374 7.43426 0.499374 7.5C0.499374 7.56574 0.512324 7.63085 0.537483 7.69158C0.562642 7.75232 0.599518 7.80751 0.646006 7.854C0.739893 7.94789 0.86723 8.00063 1.00001 8.00063C1.06575 8.00063 1.13085 7.98768 1.19159 7.96252C1.25233 7.93737 1.30752 7.90049 1.35401 7.854L2.00001 7.207V12.5C2.00001 12.8978 2.15804 13.2794 2.43935 13.5607C2.72065 13.842 3.10218 14 3.50001 14H12.5C12.8978 14 13.2794 13.842 13.5607 13.5607C13.842 13.2794 14 12.8978 14 12.5V7.207L14.646 7.854C14.7399 7.94789 14.8672 8.00063 15 8.00063C15.1328 8.00063 15.2601 7.94789 15.354 7.854C15.4479 7.76011 15.5006 7.63278 15.5006 7.5C15.5006 7.36723 15.4479 7.23989 15.354 7.146L13 4.793V1.5C13 1.36739 12.9473 1.24022 12.8536 1.14645C12.7598 1.05268 12.6326 1 12.5 1H11.5C11.3674 1 11.2402 1.05268 11.1465 1.14645C11.0527 1.24022 11 1.36739 11 1.5V2.793L8.70701 0.500001ZM13 6.207V12.5C13 12.6326 12.9473 12.7598 12.8536 12.8536C12.7598 12.9473 12.6326 13 12.5 13H3.50001C3.3674 13 3.24022 12.9473 3.14645 12.8536C3.05268 12.7598 3.00001 12.6326 3.00001 12.5V6.207L8.00001 1.207L13 6.207Z" fill="black"/>
</svg>
